<?xml version="1.0" standalone="no"?>
<!DOCTYPE svg PUBLIC "-//W3C//DTD SVG 20010904//EN"
 "http://www.w3.org/TR/2001/REC-SVG-20010904/DTD/svg10.dtd">
<svg version="1.0" xmlns="http://www.w3.org/2000/svg"
 width="633.000000pt" height="633.000000pt" viewBox="0 0 633.000000 633.000000"
 preserveAspectRatio="xMidYMid meet">
<metadata>
Created by potrace 1.14, written by Peter Selinger 2001-2017
</metadata>
<g transform="translate(0.000000,633.000000) scale(0.100000,-0.100000)"
fill="#000000" stroke="none">
<path d="M2410 6096 c0 -2 22 -63 49 -135 l49 -131 -164 0 c-90 0 -164 -1
-164 -3 0 -2 24 -74 54 -159 l54 -156 -92 -33 c-100 -36 -233 -100 -341 -163
-38 -22 -82 -47 -97 -56 -289 -166 -705 -575 -898 -885 -45 -73 -164 -300
-192 -370 -82 -199 -158 -467 -183 -645 -3 -25 -8 -56 -10 -70 -32 -230 -26
-525 15 -775 19 -113 74 -342 90 -375 4 -8 15 -40 25 -70 79 -250 264 -589
444 -815 76 -96 289 -313 375 -383 39 -31 73 -59 76 -63 33 -36 363 -249 386
-249 7 0 14 -4 16 -9 2 -4 41 -26 88 -49 309 -147 608 -229 945 -259 141 -13
491 -6 580 11 11 2 43 7 70 10 82 11 281 55 353 78 37 12 69 22 72 23 46 12
96 28 109 35 9 4 48 20 86 36 243 95 534 273 733 447 127 111 303 294 372 386
14 19 30 39 36 45 5 6 33 45 61 86 242 357 387 717 454 1128 24 143 35 551 18
677 -25 199 -24 190 -44 295 -20 105 -75 294 -122 420 -169 451 -476 859 -882
1174 -195 151 -469 309 -677 390 l-71 28 12 42 c7 22 29 93 49 157 20 63 36
118 36 122 0 4 -72 7 -160 7 -101 0 -160 4 -160 10 0 6 18 62 40 126 22 64 40
118 40 120 0 2 -344 4 -765 4 -421 0 -765 -2 -765 -4z"/>
</g>
</svg>
