<svg id="Capa_1" data-name="Capa 1" xmlns="http://www.w3.org/2000/svg" xmlns:xlink="http://www.w3.org/1999/xlink" viewBox="0 0 606 633"><defs><style>.cls-1{fill:none;}.cls-2{clip-path:url(#clip-path);}.cls-3{fill:#fdfdfd;}.cls-4{fill:#020202;}.cls-5{fill:#fcfcfc;}.cls-6{fill:#ae9c67;}.cls-7{fill:#af9d67;}.cls-8{fill:#f4f4f5;}.cls-9{fill:#f7f7f7;}.cls-10{fill:#fafafa;}.cls-11{fill:#f5f5f5;}.cls-12{fill:#ab9b67;}.cls-13{fill:#f4f5f5;}.cls-14{fill:#f6f6f6;}.cls-15{fill:#f6f7f7;}.cls-16{fill:#f3f3f4;}.cls-17{fill:#f2f3f3;}.cls-18{fill:#f3f4f4;}.cls-19{fill:#a79766;}.cls-20{fill:#f0f0f1;}.cls-21{fill:#050505;}.cls-22{fill:#161616;}.cls-23{fill:#080808;}.cls-24{fill:#070707;}.cls-25{fill:#111212;}</style><clipPath id="clip-path" transform="translate(-272 -151)"><path class="cls-1" d="M681.5,739.5a272.61,272.61,0,0,0,163-206c3.43-20.76,12.38-90-24.5-164.5-46.67-94.27-132.93-128.6-153-136q5-16.5,10-33H644l9-26H500l10,27H477l11,32c-5.3,1.74-12.57,4.33-21,8a282.83,282.83,0,0,0-44,25c-42.58,29.88-70,69-70,69-41.46,59.16-46.93,119.93-48,138-5.71,96.15,42.7,163.78,55,180,14.32,18.89,62,76.58,148,99C527.41,757.06,600,773.67,681.5,739.5Z"/></clipPath></defs><title>logo_club</title><g class="cls-2"><path class="cls-3" d="M878,784H272V151H878ZM486.82,232.51c-42.32,15.17-78.8,38.89-109.3,71.66a271.52,271.52,0,0,0-66.29,244.94c27.74,122.58,135.21,209,258.32,212A271.89,271.89,0,0,0,840.74,553.43c14.71-61.16,9.22-120.87-17.4-177.93C791,306.22,737.87,259.13,666.27,232.33c3.74-10.77,7.44-21.41,11.4-32.77H644.25l9-26.23H499.7l9.12,26.35H475.38C479.33,211,483,221.63,486.82,232.51Z" transform="translate(-272 -151)"/><path class="cls-4" d="M486.82,232.51c-3.79-10.88-7.49-21.51-11.44-32.83h33.44l-9.12-26.35H653.27l-9,26.23h33.42c-4,11.36-7.66,22-11.4,32.77,71.6,26.8,124.75,73.89,157.07,143.17,26.62,57.06,32.11,116.77,17.4,177.93A271.89,271.89,0,0,1,569.55,761.16c-123.11-3-230.58-89.47-258.32-212a271.52,271.52,0,0,1,66.29-244.94C408,271.4,444.5,247.68,486.82,232.51ZM394.63,421.64c4.14-.16,6.83-4.95,5.23-9.29,8.32-5.14,10.16-13,5.1-21.8-5.37-9.36-17.95-13.61-26.67-9-9.39,4.94-13.57,17.69-8.72,27.23l8.27-2.4a53.06,53.06,0,0,1-1-6.22c-.18-4.94,2.71-7.9,7.6-7.76a13.61,13.61,0,0,1,11.83,7.14c2.21,3.77-.05,7.46-4.45,7.64a35.1,35.1,0,0,1-4.18-.35c-1.42,2.75-2.85,5.48-4.22,8.12l11.27,6.82c-12.9,3.86-22.65-3.56-33.06-10l-9.34,29.9,13.48,4.31,2.88-8.67-6.35-2.59c.65-2.1,1.27-4.08,2-6.3,6.86,2.18,13.36,4.22,19.84,6.3.73.24,2,.73,2,1.06-.28,5.17,4.32,2.61,6.5,4.77,1.86-5.92,3.53-11.26,5.11-16.34ZM768.09,516l-8.56,34.07c3.1.17,7.25.88,7.43.31,1.16-3.53,3.37-1.79,5.14-1.47,5.06.94,10.11,2,15.14,3.15,1.09.24,3,.86,3,1.29-.08,5.61,4.61,2.63,7.07,4.62,2.38-11.26,4.62-21.91,6.9-32.75L792,522.74c-.66,3.48-1.21,6.35-1.78,9.28l4.81,1.29c-.71,2.83-1.37,5.46-2,8.22l-8.15-1.83c.73-3.62,1.34-6.7,2-10l-7-1.55c-.84,3.46-1.6,6.62-2.43,10.08l-6.91-1.54c.57-2.76,1.11-5.3,1.68-8l4.73.41c.67-3,1.29-5.91,2-9.18-3.21-.66-6.13-1.2-9-1.93-.35-.09-.43-1.2-.64-1.83,1.71-.31,3.44-.53,5.12-1,1.28-.33,2.49-1.37,3.73-1.36,5.64.05,11.27.35,16.91.62.91,0,2.54.21,2.61.57,1,5.07,4.71,1.6,7.86,3.16V486.79H792v8.92l6.13.37v6c-6.85,0-13.46,0-20.06,0-1,0-2.67-.09-2.79-.5-1.42-4.93-4.85-1.86-8.19-2.53C767.44,505.09,767.76,510.56,768.09,516ZM696.2,648.8c3-.52,5.81-1.32,8.26,1.68,3.36,4.11,7.09,7.91,10.63,11.87.63.7,1.73,1.94,1.53,2.28-2.64,4.41,2,4.93,3.44,7.54l22.84-20.75-9.73-10.57-6.71,6.42,4.39,5.11-5.08,4.37c-4.78-5.24-9.36-10.24-13.92-15.26-.44-.48-1.21-1.35-1.07-1.58,2.52-4.08-1.8-5-3.33-7.76-4,3.61-7.87,7-11.5,10.55-.77.77-.6,2.5-.86,3.78-1.19-.19-2.76-1-3.51-.48-8.42,5.42-16.71,11-25.92,17.18,8.4,4.86,6.08,13.18,7.07,22-4.47-4.18-8-7.4-11.38-10.68a2.81,2.81,0,0,1-.73-1.63c-.26-2.48-.42-5-.68-8.19l-19.12,9.46c1.84,2.94,1.85,6.93,6.52,5.82.71-.17,1.82,1.26,2.73,2l23.2,18.66a25.87,25.87,0,0,1,3.46-1.63c4.75-1.39,6.14-4.13,5.46-9.22-1-7.38-.6-14.94-1.28-22.38-.36-3.91,1.12-6.19,4.63-8.16,4,5.77,7.9,11.49,11.81,17.22.36.52.9,1.52.74,1.69-3.92,4,1,5.34,2,8.21l15.49-10.8c-3-1.22-2-7.13-7.19-4.36-.24.13-1.56-1.19-2-2C703,662.38,695.29,657.76,696.2,648.8ZM540.23,333c1.42.61,2.84,1.73,4.27,1.74,21,.11,42,0,63,.16,3.23,0,4.59-1,5.52-4.08,7.88-26.17,15.94-52.29,23.94-78.43,4-12.92,7.87-25.85,12-39.44-6.65,3.69-10.94,7.77-13,14.87-6.67,23.42-14,46.64-21.16,69.92-3,9.76-6.06,19.5-9,29.08H546.27c-10.37-33.84-20.89-67.64-31-101.57-1.83-6.18-6.45-8.3-11.81-12.41ZM412,605h0c.28,1.36.55,2.72.85,4.22-5.07,4.21-10.18,8.47-15.32,12.7-.63.52-1.79,1.4-2.05,1.21-4.24-3.14-5,1.76-7.76,2.86l12.1,14.5,4.65-7.66-1.23-.84,5.76-4.5c1.74,1.92,3.08,3.61,4.64,5.09,5.43,5.15,11.35,5.73,16.07,1.69,5.06-4.34,5.59-9.55.89-15.93-3.92-5.33-8.44-10.23-12.7-15.32l-1.42-2.21c-5.18-9.51-10.37-19-15.78-28.94-2.43,1.83-5.73,3.6-5.52,4.26,1.28,4.08-2.08,4.32-4,5.52A135.38,135.38,0,0,1,379,588.54c-1.52.74-3.55.44-5.35.61l-.29-1.34-5.76,3.45,16.52,28.87,10.64-6.43-4.63-7.94-4.64,1.92-4-7.19,7.32-4.1c1.95,3.13,3.66,5.91,5.46,8.8l6.18-3.56c-1.76-3.26-3.3-6.13-4.91-9.1l6.2-3.55,4,7.24-3.74,3c1.63,2.8,3.09,5.31,4.39,7.56ZM383,490c.67-5,1.34-10.09,2.24-16.89-4,1.41-6.79,3.27-9.46,3.13a88.34,88.34,0,0,1-16.68-2.72c-1.28-.32-2.93-3.16-2.69-4.53.29-1.65,2.41-4.2,3.77-4.23,5.62-.09,11.26.61,16.89,1.07.44,0,1.17.32,1.24.61,1,4.32,4.47,2.44,7.32,3.2.69-5.91,1.35-11.47,2.05-17.42-2.47-.13-6-1.05-6.45-.22-2.24,3.88-5.2,1.7-7.83,1.58-3.49-.15-6.95-.87-10.43-.88-9.56,0-15.34,5.38-16.48,15.17-1.07,9.09,3.29,15,13,17,5.36,1.09,10.84,1.59,16.57,2.4.37,2.25.75,4.5,1.17,7-7.44.55-14.23,1-21,1.53-.8.06-2.26.13-2.33-.12-1.45-5.12-4.89-1.7-7.92-2.35.74,8.5,1.34,16.45,2.14,24.37.49,4.91,2.18,9.15,7.7,10.4s9.07-.5,12.88-6.53c3.47,3.58,6.61,4.59,10.65,3.32a8.14,8.14,0,0,0,6-8.34c-.27-8.56-1.2-17.09-1.86-25.64A1.37,1.37,0,0,0,383,490ZM498.72,702c-.68,1.81-1.35,3.62-2.16,5.79l19.62,6.26c.8-2.62,1.43-4.65,2.1-6.85l-4.11-1.87c2.4-7.45,4.67-14.53,7-21.65,7.31.6,1.09,5.49,3.16,7.95l6.11,1.84c2.88-1.79.66-8.51,7.17-5.51q-1.83,11.09-3.64,22l-3.59.51c-.32,2.26-.63,4.35-1,6.83l18.32,3c-.49-3.25,2.94-6.5-1.86-8.36-.25-.09-.2-1.23-.1-1.85,1.1-6.83,2.24-13.65,3.33-20.26,4.44-.49,6.48,1.29,8,4.92,3.26,8,7.27,15.67,10.49,23.68,2,4.86,5.92,2.46,8.93,3,1.18.21,3.39-1.67,4.07-3.1,3.85-8.09,7.26-16.38,11.12-24.47.62-1.29,2.75-1.86,4.19-2.77.07,3-.07,6.11.26,9.13.84,7.7,3.72,14.41,11.49,17.26a21.16,21.16,0,0,0,22-3.92c7.07-6.07,6.57-14.09,4.2-22.06-2.21-7.48-7.11-12.47-15.23-13-8.47-.54-15.75,2-20.45,9.68a28.3,28.3,0,0,1-2.4,3v-7.51H579.11c5.14,9.13-1,15.7-3.6,24.08-2.17-6.08-3.94-11.07-5.72-16.07l1.21.21c.56-2.8,1.11-5.61,1.73-8.76-5.4,0-9.74.24-14.05-.07s-8.88-1.21-13.32-1.79c-3.12-.4-6.24-.71-9.36-1.06h-1L500.26,668.9c-1.5,4.79-2.87,9.14-4.29,13.68l6.89,2.19c2.94-1.27.9-8.55,7.15-4.54-2.05,6.54-4,13-6.19,19.43-.31.91-2,1.35-3,2ZM430.36,493.87c.84,84.86,70.39,148.51,150.92,146,78.74-2.43,143.49-67.95,141.56-149.77C721,410.05,654.12,345.45,572.55,347.63,497.08,349.64,431.09,410.88,430.36,493.87Zm216-240.67c123.6,36.85,195.79,162,170.74,284.42-22.3,108.93-115.92,192.1-231.33,196.19-122.12,4.33-223.64-79.19-248.46-192.22-12.07-55-6.28-108.45,18.55-159.18,31.9-65.15,83.45-107.69,152.77-129.61-1-3.07-1.93-6-2.86-8.82-100.47,27.22-197.84,130.9-182.4,273.73,13.4,124,116.54,222.26,246,226a255,255,0,0,0,262.32-242C837.7,386.48,763.33,277.24,649,244.37,648.13,247.31,647.22,250.25,646.32,253.2Zm-25.84,73.61c44.36,13,78.92,38.56,102.18,78.27S752,487.4,740.79,531.89c-18.91,74.88-84.64,127.18-162.29,127.92-81.35.77-147.73-54.15-166.15-128.83-9.19-37.26-6.25-74,9.69-109.1,21.66-47.65,58.3-78.69,108.42-94.46-1.14-3.75-2.18-7.16-3.2-10.54-69.45,17.69-142.38,91.42-130,196.3,10.06,85.3,81.82,157.05,177.5,158.3,95.43,1.25,177.75-72,182.79-172.84,4.15-83.24-51.17-160.88-133.26-182.37C623.07,319.62,621.85,323,620.48,326.81Zm-4-88.91H586.09l-9.6-29c-3.42,10.39-6.49,19.69-9.71,29.45H537.09c7.52,5.49,14.13,10.56,21,15.22,2.6,1.76,2.93,3.31,1.95,6.07-2.71,7.69-5.15,15.47-7.69,23.21l.88,1,23.28-16.75,22.77,16.42,1.14-1-8.53-26.56,11.7-8.58ZM763.85,441.28a18.24,18.24,0,0,0-1.2,2.64c-1.61,5.91-.53,11.25,3.8,15.67a10.55,10.55,0,0,0,11.94,2.64c5.94-2.24,7.05-7.46,7.58-12.94.13-1.32,0-2.67.16-4,.3-2.33.73-4.64,1.15-7.21,5.69,3.1,5.71,7.86.67,12.71.78,2.93,1.58,5.94,2.47,9.26L804,456.59c-2.13-3.57.17-9-5.84-9.77,2.63-7.6,1.81-13.75-2.46-18.92-3.61-4.37-9.91-6-13.73-2.54-2.5,2.24-4.15,5.88-5.17,9.2-1.1,3.59-.87,7.58-1.57,11.32-.23,1.2-1.59,2.19-2.44,3.27-1-1.11-3.09-2.4-2.93-3.3.54-3.08,1.87-6,2.89-9l1.16.3c-.77-2.85-1.53-5.7-2.37-8.82l-13.64,3.39C760.11,435.3,758,440.53,763.85,441.28Zm20.62,134.25,0,1.37c-2.26.36-4.62,1.29-6.78,1-8.07-1.18-16.05-2.88-24.11-4.09-1.37-.2-3.68.61-4.3,1.68-3,5.27-5.68,10.78-9.19,17.64,9-.89,13,5.56,18.07,10.17a28.32,28.32,0,0,1,4.54,4.62,35.78,35.78,0,0,1,2.72,5.72l-1,.69,6,3.06c2.72-5.34,5.31-10.41,8-15.65l-6-3.09-2.77,3.07c-3.74-3.8.44-6.12,1.35-8.76.46-1.35,2.43-2.2,3.72-3.27.3.35.61.69.92,1-.52,1.47-1,2.93-1.57,4.5l6.19,3c3.29-6.28,6.38-12.15,9.44-18a7.18,7.18,0,0,0,.37-1.7ZM440.6,674c10.12,0,20.83-11.15,20.75-21.69-.07-9.48-10.12-19.07-20.11-19.18-10.44-.12-21.18,10.72-21.08,21.3C420.25,664,430.69,674,440.6,674ZM783.32,396l-9.66-19.83c-2.29,1.08-4.22,2-6.15,2.87l1.12,1c-1.07,2-1.78,4.26-3.28,5.78-5.75,5.78-11.85,11.2-17.57,17a5.45,5.45,0,0,0-1.06,4.81c2.32,5.48,5.12,10.76,7.88,16.37,3.54-2,6.69-4.6,10.27-5.63,5.08-1.44,10.47-1.92,15.76-2.41,2-.19,4.09.73,6.15,1.15l0,1.17,6-3-7.8-15.75-6,3c.29,1.58.5,2.74.81,4.41-5.41-.42-5-5.08-6.73-7.76-.6-.92.19-2.72.35-4.12l1.32.07c.7,1.24,1.41,2.47,2.27,4ZM469.22,678.18c4.72,2.18,3.13,4.92,1.84,7.75-3,6.56-1.2,11.46,5.13,14.27,5.3,2.35,8.89.26,12.3-8.15l-5.83,1.61c.19-4,.39-8.18.54-11.47,2.66-1.93,6.33-3.45,8.21-6.2,3.29-4.8,1.44-9.92-4.66-13.82s-12.65-7.24-19.93-11.36c-.79,3.25-1.43,5.91-2.07,8.56l1.43.36q-4.51,8.31-9.07,16.61c-.55,1-1.5,2.76-1.93,2.66-5-1.09-4,3.5-6.13,5.65l15.79,8.64c1.12-2.27,3.32-5.29,2.78-5.89C464.06,683.36,468.33,681.38,469.22,678.18ZM352.08,550c2.72,7.44,4.65,14,7.47,20.18,4.27,9.3,12.68,12.7,22.37,9.75s14.92-10.53,13-20.54c-1.36-7.23-4.09-14.2-6.47-22.17-2.73,1.7-4.76,2.77-6.56,4.15-1.2.92-1.85,2.82-3.12,3.33-4.93,2-10,3.58-15.05,5.26-1,.35-3,.82-3.16.52C357.91,545.32,355.41,550.39,352.08,550Zm415,72.9L755.82,614c-2.08,2.7-3.86,5-5.67,7.34l5.17,4.29L751.15,631c-5.79-4.62-11.25-9-16.68-13.32-.48-.39-1.26-1.18-1.14-1.41,2.3-4.71-3.07-4-4.17-7l-11.9,15c14,3.21,23.26,11.42,30,23.46Zm8.17-141.65c6.81-.67,13.4-1.33,20-1.94.94-.08,2.69-.07,2.75.19,1.23,5.69,5,1.22,8,2.67-.63-6.67-1.18-12.53-1.78-18.88-2.83,1.28-6.92-1.49-7.45,3.73,0,.25-.78.56-1.22.61q-9.9,1-19.82,1.93c-.44.05-1.23-.1-1.33-.35-1.86-5.14-5.14-1.73-8.13-1.82l1.85,18.22C771,484.15,775.59,487.17,775.28,481.22ZM626,188.83l-.9-.63c-3,2.72-7.45,4.88-8.78,8.26-3,7.57-4.4,15.74-6.46,23.66,4-2,8.4-4.22,9.72-7.6C622.57,204.94,624,196.76,626,188.83Zm-99.57-.21c1.63,6.43,3.63,12.1,4.4,17.94.93,7,5.62,10.28,11.49,14.05-1.62-6.51-3.54-12.18-4.36-18C537,195.66,532.56,192.16,526.46,188.62Z" transform="translate(-272 -151)"/><path class="cls-5" d="M430.36,493.87c.73-83,66.72-144.23,142.19-146.24,81.57-2.18,148.4,62.42,150.29,142.49,1.93,81.82-62.82,147.34-141.56,149.77C500.75,642.38,431.2,578.73,430.36,493.87ZM554.94,627.81V359.7a127,127,0,0,0-43.22,14.91c-1.09.61-1.63,3-1.65,4.56-.11,16.49-.07,33-.07,49.46V607.49c0,2.45-.34,4.72,2.64,6.23C525.94,620.43,539.74,625.49,554.94,627.81Zm43.49,0a127.1,127.1,0,0,0,40.45-13.41c1.42-.76,2.7-3.3,2.7-5q.2-115.69.18-231.4c0-2.74-.7-4.41-3.27-5.31-11.27-3.94-22.51-8-33.8-11.83a39.65,39.65,0,0,0-6.26-1.05Zm86.64-52.68c39.06-49.85,33.74-121.93,0-162.18Zm-218.41-2.08V414.48C432.69,460.19,432,526.19,466.66,573.08Z" transform="translate(-272 -151)"/><path class="cls-6" d="M646.32,253.2c.9-2.95,1.81-5.89,2.71-8.83C763.33,277.24,837.7,386.48,831.62,501.7a255,255,0,0,1-262.32,242c-129.43-3.76-232.57-102.06-246-226C307.89,374.88,405.26,271.2,505.73,244c.93,2.86,1.87,5.75,2.86,8.82-69.32,21.92-120.87,64.46-152.77,129.61C331,433.14,325.2,486.64,337.27,541.59c24.82,113,126.34,196.55,248.46,192.22,115.41-4.09,209-87.26,231.33-196.19C842.11,415.22,769.92,290.05,646.32,253.2Z" transform="translate(-272 -151)"/><path class="cls-7" d="M620.48,326.81c1.37-3.81,2.59-7.19,3.79-10.54,82.09,21.49,137.41,99.13,133.26,182.37-5,100.81-87.36,174.09-182.79,172.84-95.68-1.25-167.44-73-177.5-158.3-12.36-104.88,60.57-178.61,130-196.3,1,3.38,2.06,6.79,3.2,10.54C480.34,343.19,443.7,374.23,422,421.88,406.1,457,403.16,493.72,412.35,531c18.42,74.68,84.8,129.6,166.15,128.83,77.65-.74,143.38-53,162.29-127.92,11.25-44.49,5.11-87.15-18.13-126.81S664.84,339.82,620.48,326.81Z" transform="translate(-272 -151)"/><path class="cls-8" d="M536,680.21c3.12.35,6.24.66,9.36,1.06,4.44.58,8.86,1.47,13.32,1.79s8.65.07,14.05.07c-.62,3.15-1.17,6-1.73,8.76l-1.21-.21c1.78,5,3.55,10,5.72,16.07,2.62-8.38,8.74-15,3.6-24.08h16.55v7.51l.13-.09c-1.43.9-3.56,1.47-4.18,2.76-3.86,8.09-7.27,16.38-11.12,24.47-.68,1.43-2.89,3.31-4.07,3.1-3-.53-7,1.87-8.93-3-3.22-8-7.23-15.69-10.49-23.68-1.48-3.63-3.52-5.41-8-4.92-1.09,6.61-2.23,13.43-3.33,20.26-.1.62-.15,1.76.1,1.85,4.8,1.86,1.37,5.11,1.86,8.36l-18.32-3c.36-2.48.67-4.57,1-6.83l3.59-.51q1.82-11,3.64-22c-6.51-3-4.29,3.72-7.17,5.51l-6.11-1.84c-2.07-2.46,4.15-7.35-3.16-7.95-2.29,7.12-4.56,14.2-7,21.65l4.11,1.87c-.67,2.2-1.3,4.23-2.1,6.85l-19.62-6.26c.81-2.17,1.48-4,2.16-5.79l2.07-.35c1-.65,2.72-1.09,3-2,2.21-6.4,4.14-12.89,6.19-19.43-6.25-4-4.21,3.27-7.15,4.54L496,682.58c1.42-4.54,2.79-8.89,4.29-13.68L535,680.21l.33,1.94.52-.07Z" transform="translate(-272 -151)"/><path class="cls-9" d="M383.39,490.86c.66,8.55,1.59,17.08,1.86,25.64a8.14,8.14,0,0,1-6,8.34c-4,1.27-7.18.26-10.65-3.32-3.81,6-7.27,7.81-12.88,6.53s-7.21-5.49-7.7-10.4c-.8-7.92-1.4-15.87-2.14-24.37,3,.65,6.47-2.77,7.92,2.35.07.25,1.53.18,2.33.12,6.79-.48,13.58-1,21-1.53-.42-2.48-.8-4.73-1.17-7-5.73-.81-11.21-1.31-16.57-2.4-9.67-2-14-7.88-13-17,1.14-9.79,6.92-15.21,16.48-15.17,3.48,0,6.94.73,10.43.88,2.63.12,5.59,2.3,7.83-1.58.48-.83,4,.09,6.45.22-.7,5.95-1.36,11.51-2.05,17.42-2.85-.76-6.29,1.12-7.32-3.2-.07-.29-.8-.58-1.24-.61-5.63-.46-11.27-1.16-16.89-1.07-1.36,0-3.48,2.58-3.77,4.23-.24,1.37,1.41,4.21,2.69,4.53a88.34,88.34,0,0,0,16.68,2.72c2.67.14,5.45-1.72,9.46-3.13-.9,6.8-1.57,11.85-2.24,16.89l-2.07.34.07.52Zm-30.33,16.66c1.65,3.21,2.46,5.81,4.15,7.58.73.77,4.24.44,4.78-.45,1.28-2.07,1.53-4.78,2.41-8Zm16.13-1.12c1,2.45,1.36,4.65,2.64,5.93.75.74,3.69.59,4.37-.22,1.23-1.46,1.51-3.73,2.43-6.37Z" transform="translate(-272 -151)"/><path class="cls-10" d="M616.5,237.9l-12.9,9.39-11.7,8.58,8.53,26.56-1.14,1-22.77-16.42L553.24,283.8l-.88-1c2.54-7.74,5-15.52,7.69-23.21,1-2.76.65-4.31-1.95-6.07-6.88-4.66-13.49-9.73-21-15.22h29.69c3.22-9.76,6.29-19.06,9.71-29.45l9.6,29Z" transform="translate(-272 -151)"/><path class="cls-11" d="M412,605l-5.62,1.71c-1.3-2.25-2.76-4.76-4.39-7.56l3.74-3-4-7.24-6.2,3.55c1.61,3,3.15,5.84,4.91,9.1l-6.18,3.56c-1.8-2.89-3.51-5.67-5.46-8.8l-7.32,4.1,4,7.19,4.64-1.92,4.63,7.94-10.64,6.43L367.6,591.26l5.76-3.45.29,1.34c1.8-.17,3.83.13,5.35-.61a135.38,135.38,0,0,0,12.13-6.87c1.94-1.2,5.3-1.44,4-5.52-.21-.66,3.09-2.43,5.52-4.26,5.41,9.93,10.6,19.43,15.78,28.94L415,604c-.06.16-.12.32-.19.48l.27-.4,2.84-1c4.26,5.09,8.78,10,12.7,15.32,4.7,6.38,4.17,11.59-.89,15.93-4.72,4-10.64,3.46-16.07-1.69-1.56-1.48-2.9-3.17-4.64-5.09l-5.76,4.5,1.23.84-4.65,7.66L387.69,626c2.78-1.1,3.52-6,7.76-2.86.26.19,1.42-.69,2.05-1.21,5.14-4.23,10.25-8.49,15.32-12.7-.3-1.5-.57-2.86-.85-4.22l.39-1.31Zm1.62,18.42c2.58,2.94,5,6.09,8.72,2.59,3.3-3.14,1.11-5.9-1.78-8.34Z" transform="translate(-272 -151)"/><path class="cls-12" d="M546.27,326.86h59.51c3-9.58,6.06-19.32,9-29.08,7.13-23.28,14.49-46.5,21.16-69.92,2-7.1,6.31-11.18,13-14.87-4.15,13.59-8.07,26.52-12,39.44-8,26.14-16.06,52.26-23.94,78.43-.93,3.09-2.29,4.1-5.52,4.08-21-.15-42-.05-63-.16-1.43,0-2.85-1.13-4.27-1.74Z" transform="translate(-272 -151)"/><path class="cls-11" d="M696.2,648.8c-.91,9,6.83,13.58,10.23,20.38.42.84,1.74,2.16,2,2,5.15-2.77,4.16,3.14,7.19,4.36l-15.49,10.8c-1-2.87-5.94-4.24-2-8.21.16-.17-.38-1.17-.74-1.69-3.91-5.73-7.85-11.45-11.81-17.22-3.51,2-5,4.25-4.63,8.16.68,7.44.28,15,1.28,22.38.68,5.09-.71,7.83-5.46,9.22a25.87,25.87,0,0,0-3.46,1.63L650.07,682c-.91-.73-2-2.16-2.73-2-4.67,1.11-4.68-2.88-6.52-5.82l19.12-9.46c.26,3.22.42,5.71.68,8.19a2.81,2.81,0,0,0,.73,1.63c3.43,3.28,6.91,6.5,11.38,10.68-1-8.85,1.33-17.17-7.07-22,9.21-6.15,17.5-11.76,25.92-17.18.75-.48,2.32.29,3.51.48Z" transform="translate(-272 -151)"/><path class="cls-13" d="M763.85,441.28c-5.86-.75-3.74-6-6-9.59l13.64-3.39c.84,3.12,1.6,6,2.37,8.82l-1.16-.3c-1,3-2.35,5.95-2.89,9-.16.9,1.89,2.19,2.93,3.3.85-1.08,2.21-2.07,2.44-3.27.7-3.74.47-7.73,1.57-11.32,1-3.32,2.67-7,5.17-9.2,3.82-3.44,10.12-1.83,13.73,2.54,4.27,5.17,5.09,11.32,2.46,18.92,6,.73,3.71,6.2,5.84,9.77l-13.54,3.48c-.89-3.32-1.69-6.33-2.47-9.26,5-4.85,5-9.61-.67-12.71-.42,2.57-.85,4.88-1.15,7.21-.16,1.31,0,2.66-.16,4-.53,5.48-1.64,10.7-7.58,12.94a10.55,10.55,0,0,1-11.94-2.64c-4.33-4.42-5.41-9.76-3.8-15.67A18.24,18.24,0,0,1,763.85,441.28Z" transform="translate(-272 -151)"/><path class="cls-14" d="M595.66,691.18a28.3,28.3,0,0,0,2.4-3c4.7-7.72,12-10.22,20.45-9.68,8.12.51,13,5.5,15.23,13,2.37,8,2.87,16-4.2,22.06a21.16,21.16,0,0,1-22,3.92c-7.77-2.85-10.65-9.56-11.49-17.26-.33-3-.19-6.08-.26-9.12Zm25.84,10.68.72-.31c-1.43-4-2.41-8.24-4.42-11.93-1.85-3.39-5.94-3-7.58.19-2.22,4.31-.24,15,3.39,18.36,2.86,2.65,6.23,1.85,7.36-1.87A24,24,0,0,0,621.5,701.86Z" transform="translate(-272 -151)"/><path class="cls-8" d="M784.47,575.53l5.67,2.94a7.18,7.18,0,0,1-.37,1.7c-3.06,5.89-6.15,11.76-9.44,18l-6.19-3c.54-1.57,1.05-3,1.57-4.5-.31-.35-.62-.69-.92-1-1.29,1.07-3.26,1.92-3.72,3.27-.91,2.64-5.09,5-1.35,8.76l2.77-3.07,6,3.09c-2.68,5.24-5.27,10.31-8,15.65l-6-3.06,1-.69a35.78,35.78,0,0,0-2.72-5.72,28.32,28.32,0,0,0-4.54-4.62c-5.12-4.61-9-11.06-18.07-10.17,3.51-6.86,6.14-12.37,9.19-17.64.62-1.07,2.93-1.88,4.3-1.68,8.06,1.21,16,2.91,24.11,4.09,2.16.32,4.52-.61,6.78-1Zm-18.92,12.82-9.25-1.45q2.66,3.55,6,8.06c.94-1.74,1.5-2.71,2-3.72C764.65,590.54,764.93,589.79,765.55,588.35Z" transform="translate(-272 -151)"/><path class="cls-15" d="M440.6,674c-9.91,0-20.35-10-20.44-19.57-.1-10.58,10.64-21.42,21.08-21.3,10,.11,20,9.7,20.11,19.18C461.43,662.86,450.72,674.06,440.6,674Zm8.77-26c-.09-3.81-2.83-5.49-6.56-3.65a19.5,19.5,0,0,0-10.53,13.09c-.92,3.59,1.45,6.08,4.8,5.52C441.91,662.18,449.5,652.94,449.37,648Z" transform="translate(-272 -151)"/><path class="cls-11" d="M783.32,396,777,399.09c-.86-1.51-1.57-2.74-2.27-4l-1.32-.07c-.16,1.4-.95,3.2-.35,4.12,1.72,2.68,1.32,7.34,6.73,7.76-.31-1.67-.52-2.83-.81-4.41l6-3,7.8,15.75-6,3,0-1.17c-2.06-.42-4.16-1.34-6.15-1.15-5.29.49-10.68,1-15.76,2.41-3.58,1-6.73,3.62-10.27,5.63-2.76-5.61-5.56-10.89-7.88-16.37a5.45,5.45,0,0,1,1.06-4.81c5.72-5.81,11.82-11.23,17.57-17,1.5-1.52,2.21-3.83,3.28-5.78l-1.12-1c1.93-.9,3.86-1.79,6.15-2.87Zm-25.26,14L769.79,408l-3.14-6.19Z" transform="translate(-272 -151)"/><path class="cls-8" d="M469.22,678.18c-.89,3.2-5.16,5.18-1.6,9.22.54.6-1.66,3.62-2.78,5.89l-15.79-8.64c2.12-2.15,1.11-6.74,6.13-5.65.43.1,1.38-1.67,1.93-2.66q4.58-8.28,9.07-16.61l-1.43-.36c.64-2.65,1.28-5.31,2.07-8.56,7.28,4.12,13.8,7.44,19.93,11.36s7.95,9,4.66,13.82c-1.88,2.75-5.55,4.27-8.21,6.2-.15,3.29-.35,7.49-.54,11.47l5.83-1.61c-3.41,8.41-7,10.5-12.3,8.15-6.33-2.81-8.13-7.71-5.13-14.27C472.35,683.1,473.94,680.36,469.22,678.18Zm3-5.62c3.49,1.66,6.58,3.65,8.71-.41s-.87-5.9-4.35-7.47Z" transform="translate(-272 -151)"/><path class="cls-11" d="M352.08,550c3.33.42,5.83-4.65,8.51.48.16.3,2.12-.17,3.16-.52,5.05-1.68,10.12-3.29,15.05-5.26,1.27-.51,1.92-2.41,3.12-3.33,1.8-1.38,3.83-2.45,6.56-4.15,2.38,8,5.11,14.94,6.47,22.17,1.89,10-3.37,17.61-13,20.54s-18.1-.45-22.37-9.75C356.73,564,354.8,557.41,352.08,550Zm12.34,11.81c.65,4,2.56,6.17,6.11,6.61,6,.73,11.49-.77,15.17-5.6,1.44-1.89,1-5.17,1.65-8.88Z" transform="translate(-272 -151)"/><path class="cls-16" d="M769.22,516.1c.21.63.29,1.74.64,1.83,2.86.73,5.78,1.27,9,1.93-.71,3.27-1.33,6.13-2,9.18l-4.73-.41c-.57,2.73-1.11,5.27-1.68,8l6.91,1.54c.83-3.46,1.59-6.62,2.43-10.08l7,1.55c-.67,3.33-1.28,6.41-2,10l8.15,1.83c.68-2.76,1.34-5.39,2-8.22L790.2,532c.57-2.93,1.12-5.8,1.78-9.28l12.23,2.51c-2.28,10.84-4.52,21.49-6.9,32.75-2.46-2-7.15,1-7.07-4.62,0-.43-1.91-1-3-1.29-5-1.12-10.08-2.21-15.14-3.15-1.77-.32-4-2.06-5.14,1.47-.18.57-4.33-.14-7.43-.31L768.09,516Z" transform="translate(-272 -151)"/><path class="cls-8" d="M546.27,326.86l-6,6.18L503.5,212.88c5.36,4.11,10,6.23,11.81,12.41C525.38,259.22,535.9,293,546.27,326.86Z" transform="translate(-272 -151)"/><path class="cls-8" d="M394.71,421.74l-11.25-6.8c1.37-2.64,2.8-5.37,4.22-8.12a35.1,35.1,0,0,0,4.18.35c4.4-.18,6.66-3.87,4.45-7.64a13.61,13.61,0,0,0-11.83-7.14c-4.89-.14-7.78,2.82-7.6,7.76a53.06,53.06,0,0,0,1,6.22l-8.27,2.4c-4.85-9.54-.67-22.29,8.72-27.23,8.72-4.6,21.3-.35,26.67,9,5.06,8.8,3.22,16.66-5.1,21.8,1.6,4.34-1.09,9.13-5.23,9.29Z" transform="translate(-272 -151)"/><path class="cls-17" d="M696.2,648.8l-1.11-2.32c.26-1.28.09-3,.86-3.78,3.63-3.6,7.51-6.94,11.5-10.55,1.53,2.73,5.85,3.68,3.33,7.76-.14.23.63,1.1,1.07,1.58,4.56,5,9.14,10,13.92,15.26l5.08-4.37-4.39-5.11,6.71-6.42,9.73,10.57-22.84,20.75c-1.43-2.61-6.08-3.13-3.44-7.54.2-.34-.9-1.58-1.53-2.28-3.54-4-7.27-7.76-10.63-11.87C702,647.48,699.16,648.28,696.2,648.8Z" transform="translate(-272 -151)"/><path class="cls-18" d="M769.22,516.1l-1.13-.07c-.33-5.47-.65-10.94-1-17,3.34.67,6.77-2.4,8.19,2.53.12.41,1.82.5,2.79.5,6.6,0,13.21,0,20.06,0v-6l-6.13-.37v-8.92h13.47v31.33c-3.15-1.56-6.87,1.91-7.86-3.16-.07-.36-1.7-.53-2.61-.57-5.64-.27-11.27-.57-16.91-.62-1.24,0-2.45,1-3.73,1.36C772.66,515.57,770.93,515.79,769.22,516.1Z" transform="translate(-272 -151)"/><path class="cls-16" d="M394.63,421.64l3.1,2.52c-1.58,5.08-3.25,10.42-5.11,16.34-2.18-2.16-6.78.4-6.5-4.77,0-.33-1.25-.82-2-1.06-6.48-2.08-13-4.12-19.84-6.3-.69,2.22-1.31,4.2-2,6.3l6.35,2.59-2.88,8.67-13.48-4.31,9.34-29.9c10.41,6.48,20.16,13.9,33.05,10Z" transform="translate(-272 -151)"/><path class="cls-8" d="M767.11,622.87l-19.84,24.89c-6.75-12-16-20.25-30-23.46l11.9-15c1.1,3,6.47,2.25,4.17,7-.12.23.66,1,1.14,1.41,5.43,4.36,10.89,8.7,16.68,13.32l4.17-5.35-5.17-4.29c1.81-2.33,3.59-4.64,5.67-7.34Z" transform="translate(-272 -151)"/><path class="cls-11" d="M775.28,481.22c.31,5.95-4.25,2.93-7.18,4.36l-1.85-18.22c3,.09,6.27-3.32,8.13,1.82.1.25.89.4,1.33.35q9.91-.91,19.82-1.93c.44-.05,1.19-.36,1.22-.61.53-5.22,4.62-2.45,7.45-3.73.6,6.35,1.15,12.21,1.78,18.88-3-1.45-6.72,3-8-2.67-.06-.26-1.81-.27-2.75-.19C788.68,479.89,782.09,480.55,775.28,481.22Z" transform="translate(-272 -151)"/><path class="cls-19" d="M626,188.83c-2,7.93-3.46,16.11-6.42,23.69-1.32,3.38-5.72,5.56-9.72,7.6,2.06-7.92,3.48-16.09,6.46-23.66,1.33-3.38,5.76-5.54,8.78-8.26Z" transform="translate(-272 -151)"/><path class="cls-20" d="M526.46,188.62c6.1,3.54,10.56,7,11.53,14,.82,5.82,2.74,11.49,4.36,18-5.87-3.77-10.56-7.05-11.49-14.05C530.09,200.72,528.09,195.05,526.46,188.62Z" transform="translate(-272 -151)"/><path class="cls-18" d="M415,604l1.5-3.13,1.42,2.21L415,604Z" transform="translate(-272 -151)"/><path class="cls-18" d="M536,680.21l-.15,1.87-.52.07-.33-1.94Z" transform="translate(-272 -151)"/><path class="cls-11" d="M383.39,490.86H381l-.07-.52L383,490A1.37,1.37,0,0,1,383.39,490.86Z" transform="translate(-272 -151)"/><path class="cls-18" d="M500.79,701.66l-2.07.35Z" transform="translate(-272 -151)"/><path d="M554.94,627.81c-15.2-2.32-29-7.38-42.3-14.09-3-1.51-2.64-3.78-2.64-6.23V428.63c0-16.48,0-33,.07-49.46,0-1.56.56-3.95,1.65-4.56a127,127,0,0,1,43.22-14.91Z" transform="translate(-272 -151)"/><path class="cls-21" d="M598.43,627.84v-268a39.65,39.65,0,0,1,6.26,1.05c11.29,3.87,22.53,7.89,33.8,11.83,2.57.9,3.27,2.57,3.27,5.31q-.12,115.7-.18,231.4c0,1.71-1.28,4.25-2.7,5A127.1,127.1,0,0,1,598.43,627.84Z" transform="translate(-272 -151)"/><path class="cls-4" d="M685.07,575.16V413C718.81,453.23,724.13,525.31,685.07,575.16Z" transform="translate(-272 -151)"/><path class="cls-4" d="M466.66,573.08c-34.64-46.89-34-112.89,0-158.6Z" transform="translate(-272 -151)"/><path class="cls-22" d="M353.06,507.52l11.34-.88c-.88,3.23-1.13,5.94-2.41,8-.54.89-4.05,1.22-4.78.45C355.52,513.33,354.71,510.73,353.06,507.52Z" transform="translate(-272 -151)"/><path class="cls-23" d="M369.19,506.4l9.44-.66c-.92,2.64-1.2,4.91-2.43,6.37-.68.81-3.62,1-4.37.22C370.55,511.05,370.2,508.85,369.19,506.4Z" transform="translate(-272 -151)"/><path class="cls-22" d="M413.6,623.45l6.94-5.75c2.89,2.44,5.08,5.2,1.78,8.34C418.64,629.54,416.18,626.39,413.6,623.45Z" transform="translate(-272 -151)"/><path class="cls-18" d="M412,605l.38-1.32L412,605Z" transform="translate(-272 -151)"/><path class="cls-18" d="M415,604l-.27.4c.07-.16.13-.32.19-.48Z" transform="translate(-272 -151)"/><path class="cls-23" d="M621.5,701.86a24,24,0,0,1-.53,4.44c-1.13,3.72-4.5,4.52-7.36,1.87-3.63-3.34-5.61-14-3.39-18.36,1.64-3.19,5.73-3.58,7.58-.19,2,3.69,3,7.93,4.42,11.93Z" transform="translate(-272 -151)"/><path class="cls-22" d="M765.55,588.35c-.62,1.44-.9,2.19-1.25,2.89-.51,1-1.07,2-2,3.72q-3.35-4.5-6-8.06Z" transform="translate(-272 -151)"/><path class="cls-24" d="M449.37,648c.13,4.92-7.46,14.16-12.29,15-3.35.56-5.72-1.93-4.8-5.52a19.5,19.5,0,0,1,10.53-13.09C446.54,642.53,449.28,644.21,449.37,648Z" transform="translate(-272 -151)"/><path class="cls-22" d="M758.06,410l8.59-8.14,3.14,6.19Z" transform="translate(-272 -151)"/><path class="cls-25" d="M472.27,672.56l4.36-7.88c3.48,1.57,6.54,3.31,4.35,7.47S475.76,674.22,472.27,672.56Z" transform="translate(-272 -151)"/><path class="cls-23" d="M364.42,561.78l22.93-7.87c-.61,3.71-.21,7-1.65,8.88-3.68,4.83-9.19,6.33-15.17,5.6C367,568,365.07,565.73,364.42,561.78Z" transform="translate(-272 -151)"/></g></svg>